<?xml version="1.0" encoding="UTF-8"?>
<svg version="1.1" xmlns="http://www.w3.org/2000/svg" width="256" height="256">
<path d="M0 0 C25.32155696 0 46.91939433 8.44658086 65.24609375 26.1484375 C69.38857372 30.43781393 72.77501785 34.99499524 76 40 C76.61617187 40.93457031 77.23234375 41.86914062 77.8671875 42.83203125 C82.66962743 50.53036307 85.49973783 58.34674889 88 67 C88.37125 68.21816406 88.37125 68.21816406 88.75 69.4609375 C90.53899491 76.14482127 90.40571334 83.13117873 90 90 C88.15086057 91.84913943 85.1211518 91.17339215 82.64428711 91.20532227 C81.98089828 91.21522186 81.31750946 91.22512146 80.63401794 91.23532104 C78.43183005 91.26701737 76.22962055 91.29172534 74.02734375 91.31640625 C72.50419032 91.33696878 70.98104269 91.35796505 69.457901 91.37937927 C65.44168786 91.43467247 61.42542262 91.48404963 57.40911865 91.53222656 C53.31371401 91.58238882 49.21838539 91.63810236 45.12304688 91.69335938 C37.08209545 91.80102954 29.04108059 91.90245467 21 92 C21.68122421 92.26545624 22.36244843 92.53091248 23.0643158 92.80441284 C23.96082352 93.15754547 24.85733124 93.5106781 25.78100586 93.87451172 C27.11221718 94.39644608 27.11221718 94.39644608 28.47032166 94.92892456 C42.73621763 100.96915921 53.4444926 113.24194811 60 127 C63.38107758 135.96139711 65.13112713 144.53571266 65.11352539 154.12866211 C65.11367142 154.80268066 65.11381744 155.47669922 65.1139679 156.17114258 C65.11327769 158.37324372 65.10552764 160.5752576 65.09765625 162.77734375 C65.09578889 164.31433567 65.09436649 165.85132819 65.09336853 167.38832092 C65.08956837 171.41437451 65.0797597 175.44039146 65.06866455 179.46643066 C65.0583964 183.58243311 65.05385938 187.69844153 65.04882812 191.81445312 C65.03813497 199.87631881 65.02108891 207.93815483 65 216 C63.24262833 216.01705592 61.48520866 216.02921283 59.7277832 216.03930664 C58.74912796 216.04660294 57.77047272 216.05389923 56.76216125 216.06141663 C42.9251504 215.75375084 28.0061995 207.90091577 18.24609375 198.4453125 C7.75455803 187.02322317 -0.13778169 172.6101408 -0.1875 156.75 C-0.125625 155.5125 -0.06375 154.275 0 153 C-0.87785156 153.10441406 -0.87785156 153.10441406 -1.7734375 153.2109375 C-15.43206449 154.07229236 -29.2728004 148.1153597 -40 140 C-40.62777344 139.55269531 -41.25554687 139.10539063 -41.90234375 138.64453125 C-50.46977906 132.01982503 -56.95527055 121.94527594 -61 112 C-61.31839844 111.24332031 -61.63679688 110.48664063 -61.96484375 109.70703125 C-67.52421733 93.59253365 -64.76718254 74.44487697 -57.5 59.4375 C-48.01525509 43.22241842 -33.87054737 34.04383541 -16.5625 27.75 C-11.07451454 26.59463464 -5.59537955 26.34610595 0 26 C0 17.42 0 8.84 0 0 Z " fill="#27650D" transform="translate(115,20)"/>
<path d="M0 0 C2.08826252 -0.01893175 4.17657447 -0.03246483 6.26489258 -0.04370117 C8.00927361 -0.05586922 8.00927361 -0.05586922 9.78889465 -0.06828308 C23.19953299 0.21688966 36.44258271 8.06754939 46 17 C58.53848161 30.16641849 65.14687308 45.95417061 65.11352539 64.12866211 C65.11367142 64.80268066 65.11381744 65.47669922 65.1139679 66.17114258 C65.11327769 68.37324372 65.10552764 70.5752576 65.09765625 72.77734375 C65.09578889 74.31433567 65.09436649 75.85132819 65.09336853 77.38832092 C65.08956837 81.41437451 65.0797597 85.44039146 65.06866455 89.46643066 C65.0583964 93.58243311 65.05385938 97.69844153 65.04882812 101.81445312 C65.03813497 109.87631881 65.02108891 117.93815483 65 126 C63.24262833 126.01705592 61.48520866 126.02921283 59.7277832 126.03930664 C58.25980034 126.05025108 58.25980034 126.05025108 56.76216125 126.06141663 C42.9251504 125.75375084 28.0061995 117.90091577 18.24609375 108.4453125 C3.82648654 92.74674882 -0.51024494 75.88058745 -0.29296875 55.078125 C-0.28735946 53.48102216 -0.28309568 51.88391409 -0.28010559 50.2868042 C-0.26876151 46.12423949 -0.23938702 41.96199895 -0.20599365 37.79956055 C-0.17506497 33.53568911 -0.16155201 29.27176426 -0.14648438 25.0078125 C-0.11450498 16.67172779 -0.06343849 8.33590445 0 0 Z " fill="#54A936" transform="translate(115,110)"/>
<path d="M0 0 C1.92025935 3.75112116 3.66320488 7.58201898 5.4140625 11.4140625 C5.74739594 12.14257416 6.08072937 12.87108582 6.42416382 13.62167358 C7.13225449 15.16981944 7.83997861 16.71813299 8.54736328 18.26660156 C9.94502747 21.3253773 11.3449822 24.38309724 12.74786377 27.43948364 C13.44987099 28.98150038 14.1433491 30.52742492 14.82879639 32.07687378 C16.49456399 35.82575065 18.21260237 39.44155102 20.29003906 42.98095703 C28.2228357 57.15767276 26.93021907 72.6350975 26.54931641 88.36749268 C26.46626818 92.16910762 26.43068799 95.97116968 26.390625 99.7734375 C26.30579525 107.18348435 26.16996573 114.59136354 26 122 C24.26312122 122.02902279 22.52609987 122.0495805 20.7890625 122.06665039 C19.33814209 122.08520836 19.33814209 122.08520836 17.85791016 122.10414124 C13.62420423 121.94986649 9.96356149 120.85807436 6 119.4375 C5.22744873 119.169375 4.45489746 118.90125 3.65893555 118.625 C-2.83811677 116.26614131 -8.47772179 113.17772352 -14 109 C-14.62777344 108.55269531 -15.25554687 108.10539062 -15.90234375 107.64453125 C-24.46977906 101.01982503 -30.95527055 90.94527594 -35 81 C-35.31839844 80.24332031 -35.63679688 79.48664063 -35.96484375 78.70703125 C-41.52421733 62.59253365 -38.76718254 43.44487697 -31.5 28.4375 C-24.27551437 16.08654856 -13.05137814 5.83877443 0 0 Z " fill="#348D0B" transform="translate(89,51)"/>
<path d="M0 0 C21.45 0 42.9 0 65 0 C65 20.79 65 41.58 65 63 C47.44390796 63 31.11830507 57.91592773 18.24609375 45.4453125 C6.19119762 32.3211995 0 17.82622648 0 0 Z " fill="#8DC060" transform="translate(115,173)"/>
<path d="M0 0 C0 20.46 0 40.92 0 62 C-2.5701641 59.4298359 -3.73395891 56.48917565 -5.1953125 53.21875 C-5.50422928 52.53701218 -5.81314606 51.85527435 -6.13142395 51.15287781 C-7.13392079 48.9373125 -8.12976699 46.71883664 -9.125 44.5 C-9.80646924 42.98727218 -10.48819137 41.47465825 -11.17016602 39.9621582 C-12.50959585 36.98969435 -13.84621805 34.01598907 -15.18115234 31.04150391 C-16.6955972 27.67044618 -18.22781004 24.30790564 -19.76953125 20.94921875 C-20.49234729 19.36205193 -21.21502157 17.77482053 -21.9375 16.1875 C-22.26057129 15.49140625 -22.58364258 14.7953125 -22.91650391 14.078125 C-24.42737783 10.72557889 -25 8.7646791 -25 5 C-16.40645798 1.92064744 -9.16693497 0 0 0 Z " fill="#2E750B" transform="translate(115,46)"/>
<path d="M0 0 C2.92584944 1.3154029 3.83752812 2.40503374 6 5 C6.98128877 9.02247296 6.3829895 12.11912416 4.75 15.875 C2.09333411 19.10095144 0.22224846 19.81400567 -3.875 20.4375 C-7.24556562 19.96562081 -9.2812456 19.01756674 -11.79296875 16.69140625 C-14.11998206 13.43057529 -14.44668822 9.91383967 -14 6 C-10.50304632 0.21193874 -6.60705922 -1.05223536 0 0 Z " fill="#E9EBE8" transform="translate(174,73)"/>
</svg>
